<?xml version="1.0" encoding="utf-8"?>
<svg version="1.1" xmlns="http://www.w3.org/2000/svg" xmlns:xlink="http://www.w3.org/1999/xlink" width="128" height="128" viewBox="0 0 465 465">
<g transform="translate(0, 121.5)">
<polygon fill-rule="evenodd" clip-rule="evenodd" fill="#8C181D" points="0,142.558 411.29,142.558 411.29,180.445 0,180.445 0,142.558 "/>
<path fill="#2A3282" d="M84.239,102.656c3.027-32.326-13.376-48.57-39.649-48.57c-25.481,0-41.723,17.198-41.723,41.084 c0,25.159,16.084,41.881,43.155,41.881c11.944,0,25.478-4.141,33.758-12.739l-12.421-12.263c-4.458,4.62-13.853,7.325-21.019,7.325 c-13.695,0-22.136-7.007-23.409-16.719H84.239L84.239,102.656z M23.249,86.572c2.867-10.192,11.465-15.288,21.978-15.288 c11.146,0,19.108,5.096,20.382,15.288H23.249L23.249,86.572z"/>
<path fill="#2A3282" d="M132.299,81.25l-10.372,13.665l10.243,13.79l14.243,21.964l26.045,4.312v-0.477L145.07,95.17L132.299,81.25 L132.299,81.25z M119.993,97.464l-28.11,37.039v0.477h23.251l15.077-23.252L119.993,97.464L119.993,97.464z"/>
<path fill="#2A3282" d="M243.958,67.302c-4.459-7.803-14.492-12.739-25.002-12.739c-22.93-0.159-40.925,14.013-40.925,41.085 c0,27.547,17.197,41.879,40.449,41.721c8.756-0.16,21.019-4.619,25.478-13.855l0.955,11.466h18.313V56.474h-18.632L243.958,67.302 L243.958,67.302z M220.709,71.92c30.573,0,30.573,47.612,0,47.612c-12.899,0-23.249-8.918-23.249-23.884 C197.46,80.68,207.81,71.92,220.709,71.92L220.709,71.92z"/>
<path fill="#2A3282" d="M335.682,112.21c-4.78,4.774-10.989,6.527-17.201,6.527c-12.102,0-22.293-7.962-22.293-22.931 c0-13.694,9.555-23.25,22.612-23.25c5.414,0,11.146,2.07,15.767,6.21l12.26-12.898c-8.597-8.439-17.198-11.624-28.346-11.624 c-22.771,0-41.72,13.694-41.72,41.562s18.948,41.563,41.72,41.563c11.626,0,21.181-3.504,30.259-12.42L335.682,112.21 L335.682,112.21z"/>
<path fill="#2A3282" d="M365.297,36.411v20.223h-14.649v16.72h14.649v33.918c0,19.588,11.147,29.3,28.187,28.663 c5.894-0.157,10.509-1.116,16.084-3.343l-5.414-16.561c-2.866,1.432-6.37,2.388-9.396,2.388c-6.051,0-10.192-3.662-10.192-11.147 V73.354h21.817v-16.72h-21.656V34.34L365.297,36.411L365.297,36.411z"/>
<path fill="#FFFFFF" d="M17.695,172.503h4.115v-18.109h6.918v-3.739c-6.328,0-11.656,0-17.951,0v3.739h6.918V172.503L17.695,172.503 z"/>
<path fill="#FFFFFF" d="M47.49,168.451H35.243v-4.925h11.812v-3.832H35.243v-5.049H47.49v-3.99H31.16c0,7.284,0,14.586,0,21.849 h16.33V168.451L47.49,168.451z"/>
<path fill="#FFFFFF" d="M67.092,166.922c-1.432,1.436-3.583,2.214-5.484,2.214c-5.393,0-7.48-3.77-7.511-7.386 c-0.031-3.646,2.245-7.574,7.511-7.574c1.9,0,3.832,0.655,5.267,2.057l2.742-2.646c-2.242-2.214-5.049-3.336-8.008-3.336 c-7.884,0-11.594,5.796-11.563,11.5C50.076,167.423,53.504,173,61.608,173c3.146,0,6.046-1.026,8.291-3.241L67.092,166.922 L67.092,166.922z"/>
<polygon fill="#FFFFFF" points="91.151,172.503 91.151,150.717 87.071,150.717 87.071,159.912 76.349,159.912 76.349,150.717 72.235,150.717 72.235,172.503 76.349,172.503 76.349,163.714 87.071,163.714 87.071,172.503 91.151,172.503 "/>
<polygon fill="#FFFFFF" points="109.354,164.203 98.666,150.655 95.331,150.655 95.331,172.503 99.442,172.503 99.442,157.77 110.913,172.503 110.913,172.503 113.468,172.503 113.468,150.655 109.354,150.655 109.354,164.203 "/>
<path fill="#FFFFFF" d="M127.805,150.25c-7.542,0-11.219,5.764-11.219,11.5c0,5.734,3.552,11.249,11.219,11.249 s11.126-5.639,11.188-11.281C139.055,156.014,135.316,150.25,127.805,150.25L127.805,150.25z M127.805,153.99 c5.142,0,7.199,4.114,7.136,7.791c-0.063,3.586-1.994,7.449-7.136,7.449s-7.073-3.832-7.169-7.418 C120.542,158.135,122.663,153.99,127.805,153.99L127.805,153.99z"/>
<polygon fill="#FFFFFF" points="142.017,150.655 142.017,172.503 157.35,172.503 157.35,168.702 146.131,168.702 146.131,150.655 142.017,150.655 "/>
<path fill="#FFFFFF" d="M169.849,150.25c-7.542,0-11.222,5.764-11.222,11.5c0,5.734,3.555,11.249,11.222,11.249 c7.667,0,11.126-5.639,11.188-11.281C181.099,156.014,177.36,150.25,169.849,150.25L169.849,150.25z M169.849,153.99 c5.142,0,7.198,4.114,7.136,7.791c-0.062,3.586-1.994,7.449-7.136,7.449c-5.143,0-7.077-3.832-7.169-7.418 C162.586,158.135,164.707,153.99,169.849,153.99L169.849,153.99z"/>
<path fill="#FFFFFF" d="M202.82,153.397c-2.242-2.214-5.174-3.335-8.102-3.335c-7.698,0-11.532,5.673-11.532,11.812 c0,5.735,3.334,11.126,11.532,11.126c3.833,0,6.543-1.466,8.695-3.925v-9.194h-9.35v3.68h5.581v3.863 c-1.717,1.372-3.211,1.745-4.925,1.745c-5.421,0-7.511-3.709-7.511-7.295c0-4.486,2.835-8.038,7.511-8.038 c1.901,0,4.081,0.775,5.547,2.179L202.82,153.397L202.82,153.397z"/>
<polygon fill="#FFFFFF" points="209.117,150.655 204.224,150.655 204.224,150.841 212.607,163.48 212.607,172.503 216.722,172.503 216.722,163.48 225.416,150.841 225.416,150.655 220.46,150.655 214.666,159.675 209.117,150.655 "/>
<path fill="#FFFFFF" d="M237.636,154.581h6.17c5.235,0,5.266,7.731,0,7.731h-6.17V154.581L237.636,154.581z M243.806,150.655 c-3.429-0.031-6.856,0-10.285,0v21.849h4.115v-6.421h6.17C254.496,166.083,254.465,150.655,243.806,150.655L243.806,150.655z"/>
<path fill="#FFFFFF" d="M271.916,172.503h4.49l-9.788-21.849h-4.486l-9.787,21.849h4.456l1.872-4.115h11.405L271.916,172.503 L271.916,172.503z M268.426,164.553h-8.102l4.05-9.305L268.426,164.553L268.426,164.553z"/>
<path fill="#FFFFFF" d="M297.6,172.224l-6.608-7.449c4.146-0.842,5.516-3.866,5.516-6.875c0-3.785-2.712-7.214-7.854-7.245 c-3.46,0.031-6.918,0-10.378,0v21.849h4.114v-7.295h3.956l6.359,7.295h4.895V172.224L297.6,172.224z M288.653,154.488 c2.587,0,3.738,1.749,3.738,3.507c0,1.757-1.121,3.506-3.738,3.506h-6.264v-7.013H288.653L288.653,154.488z"/>
<path fill="#FFFFFF" d="M305.888,172.503h4.113v-18.109h6.919v-3.739c-6.325,0-11.657,0-17.951,0v3.739h6.919V172.503 L305.888,172.503z"/>
<polygon fill="#FFFFFF" points="333.75,164.203 323.062,150.655 319.727,150.655 319.727,172.503 323.838,172.503 323.838,157.77 335.309,172.503 335.309,172.503 337.864,172.503 337.864,150.655 333.75,150.655 333.75,164.203 "/>
<path fill="#FFFFFF" d="M357.904,168.451h-12.25v-4.925h11.813v-3.832h-11.813v-5.049h12.25v-3.99h-16.329 c0,7.284,0,14.586,0,21.849h16.329V168.451L357.904,168.451z"/>
<path fill="#FFFFFF" d="M380.438,172.224l-6.607-7.449c4.146-0.842,5.515-3.866,5.515-6.875c0-3.785-2.711-7.214-7.854-7.245 c-3.458,0.031-6.917,0-10.377,0v21.849h4.112v-7.295h3.959l6.358,7.295h4.894V172.224L380.438,172.224z M371.492,154.488 c2.587,0,3.74,1.749,3.74,3.507c0,1.757-1.121,3.506-3.74,3.506h-6.265v-7.013H371.492L371.492,154.488z"/>
<path fill="#FFFFFF" d="M399.821,154.269c-1.652-3.366-5.172-4.331-8.569-4.331c-4.022,0.033-8.447,1.871-8.447,6.359 c0,4.891,4.115,6.077,8.57,6.604c2.901,0.313,5.049,1.155,5.049,3.21c0,2.369-2.43,3.274-5.017,3.274 c-2.648,0-5.174-1.06-6.139-3.46l-3.429,1.776c1.62,3.99,5.049,5.36,9.506,5.36c4.862,0,9.162-2.088,9.162-6.951 c0-5.203-4.238-6.387-8.788-6.948c-2.617-0.312-4.862-0.842-4.862-2.742c0-1.621,1.465-2.897,4.518-2.897 c2.369,0,4.429,1.183,5.174,2.429L399.821,154.269L399.821,154.269z"/>
<polygon fill="#8C181D" points="122.658,65.445 132.299,81.25 196.492,0 210.417,11.003 139.135,101.229 132.17,108.705 93.539,56.697 122.658,65.445 "/>
</g>
</svg>