<?xml version="1.0" encoding="utf-8"?>
<!-- Generator: Adobe Illustrator 15.0.0, SVG Export Plug-In  -->
<!DOCTYPE svg PUBLIC "-//W3C//DTD SVG 1.1//EN" "http://www.w3.org/Graphics/SVG/1.1/DTD/svg11.dtd" [
	<!ENTITY ns_flows "http://ns.adobe.com/Flows/1.0/">
]>
<svg version="1.1"
	 xmlns="http://www.w3.org/2000/svg" xmlns:xlink="http://www.w3.org/1999/xlink" xmlns:a="http://ns.adobe.com/AdobeSVGViewerExtensions/3.0/"
	 x="0px" y="0px" width="465px" height="465px" viewBox="0 0 465 465" enable-background="new 0 0 465 465" xml:space="preserve">
<defs>
</defs>
<ellipse fill="#FFFFFF" cx="232.489" cy="232.56" rx="232.489" ry="232.56"/>
<polygon fill-rule="evenodd" clip-rule="evenodd" fill="#8C181D" points="27.015,286.916 438.305,286.916 438.305,324.802 
	27.015,324.802 27.015,286.916 "/>
<path fill="#2A3282" d="M111.254,247.013c3.027-32.326-13.376-48.57-39.649-48.57c-25.481,0-41.723,17.198-41.723,41.084
	c0,25.159,16.084,41.881,43.155,41.881c11.944,0,25.478-4.141,33.758-12.739l-12.421-12.263c-4.458,4.62-13.853,7.325-21.019,7.325
	c-13.695,0-22.136-7.007-23.409-16.719H111.254L111.254,247.013z M50.264,230.929c2.867-10.192,11.465-15.288,21.978-15.288
	c11.146,0,19.108,5.096,20.382,15.288H50.264L50.264,230.929z"/>
<path fill="#2A3282" d="M159.314,225.607l-10.372,13.665l10.243,13.79l14.243,21.964l26.045,4.312v-0.477l-27.389-39.333
	L159.314,225.607L159.314,225.607z M147.008,241.822l-28.11,37.039v0.477h23.251l15.077-23.252L147.008,241.822L147.008,241.822z"/>
<path fill="#2A3282" d="M270.973,211.66c-4.459-7.803-14.492-12.739-25.002-12.739c-22.93-0.159-40.925,14.013-40.925,41.085
	c0,27.547,17.197,41.879,40.449,41.721c8.756-0.16,21.019-4.619,25.478-13.855l0.955,11.466h18.313v-78.506H271.61L270.973,211.66
	L270.973,211.66z M247.724,216.278c30.573,0,30.573,47.612,0,47.612c-12.899,0-23.249-8.918-23.249-23.884
	C224.475,225.037,234.825,216.278,247.724,216.278L247.724,216.278z"/>
<path fill="#2A3282" d="M362.697,256.568c-4.78,4.774-10.989,6.527-17.201,6.527c-12.102,0-22.293-7.962-22.293-22.931
	c0-13.694,9.555-23.25,22.612-23.25c5.414,0,11.146,2.07,15.767,6.21l12.26-12.898c-8.597-8.439-17.198-11.624-28.346-11.624
	c-22.771,0-41.72,13.694-41.72,41.562s18.948,41.563,41.72,41.563c11.626,0,21.181-3.504,30.259-12.42L362.697,256.568
	L362.697,256.568z"/>
<path fill="#2A3282" d="M392.312,180.768v20.223h-14.649v16.72h14.649v33.918c0,19.588,11.147,29.3,28.187,28.663
	c5.894-0.157,10.509-1.116,16.084-3.343l-5.414-16.561c-2.866,1.432-6.37,2.388-9.396,2.388c-6.051,0-10.192-3.662-10.192-11.147
	v-33.918h21.817v-16.72h-21.656v-22.293L392.312,180.768L392.312,180.768z"/>
<path fill="#FFFFFF" d="M44.71,316.861h4.115v-18.109h6.918v-3.739c-6.328,0-11.656,0-17.951,0v3.739h6.918V316.861L44.71,316.861z"
	/>
<path fill="#FFFFFF" d="M74.505,312.808H62.258v-4.925H74.07v-3.832H62.258v-5.049h12.247v-3.99h-16.33c0,7.284,0,14.586,0,21.849
	h16.33V312.808L74.505,312.808z"/>
<path fill="#FFFFFF" d="M94.107,311.28c-1.432,1.436-3.583,2.214-5.484,2.214c-5.393,0-7.48-3.77-7.511-7.386
	c-0.031-3.646,2.245-7.574,7.511-7.574c1.9,0,3.832,0.655,5.267,2.057l2.742-2.646c-2.242-2.214-5.049-3.336-8.008-3.336
	c-7.884,0-11.594,5.796-11.563,11.5c0.031,5.673,3.459,11.249,11.563,11.249c3.146,0,6.046-1.026,8.291-3.241L94.107,311.28
	L94.107,311.28z"/>
<polygon fill="#FFFFFF" points="118.167,316.861 118.167,295.075 114.086,295.075 114.086,304.269 103.364,304.269 103.364,295.075 
	99.25,295.075 99.25,316.861 103.364,316.861 103.364,308.072 114.086,308.072 114.086,316.861 118.167,316.861 "/>
<polygon fill="#FFFFFF" points="136.369,308.56 125.681,295.012 122.346,295.012 122.346,316.861 126.458,316.861 126.458,302.127 
	137.928,316.861 137.928,316.861 140.483,316.861 140.483,295.012 136.369,295.012 136.369,308.56 "/>
<path fill="#FFFFFF" d="M154.82,294.608c-7.542,0-11.219,5.764-11.219,11.5c0,5.734,3.552,11.249,11.219,11.249
	s11.126-5.639,11.188-11.281C166.07,300.372,162.332,294.608,154.82,294.608L154.82,294.608z M154.82,298.347
	c5.142,0,7.199,4.114,7.136,7.791c-0.063,3.586-1.994,7.449-7.136,7.449s-7.073-3.832-7.169-7.418
	C147.557,302.493,149.678,298.347,154.82,298.347L154.82,298.347z"/>
<polygon fill="#FFFFFF" points="169.032,295.012 169.032,316.861 184.365,316.861 184.365,313.059 173.146,313.059 173.146,295.012 
	169.032,295.012 "/>
<path fill="#FFFFFF" d="M196.864,294.608c-7.542,0-11.222,5.764-11.222,11.5c0,5.734,3.555,11.249,11.222,11.249
	c7.667,0,11.126-5.639,11.188-11.281C208.114,300.372,204.375,294.608,196.864,294.608L196.864,294.608z M196.864,298.347
	c5.142,0,7.198,4.114,7.136,7.791c-0.062,3.586-1.994,7.449-7.136,7.449c-5.143,0-7.077-3.832-7.169-7.418
	C189.602,302.493,191.722,298.347,196.864,298.347L196.864,298.347z"/>
<path fill="#FFFFFF" d="M229.835,297.754c-2.242-2.214-5.174-3.335-8.102-3.335c-7.698,0-11.532,5.673-11.532,11.812
	c0,5.735,3.334,11.126,11.532,11.126c3.833,0,6.543-1.466,8.695-3.925v-9.194h-9.35v3.68h5.581v3.863
	c-1.717,1.372-3.211,1.745-4.925,1.745c-5.421,0-7.511-3.709-7.511-7.295c0-4.486,2.835-8.038,7.511-8.038
	c1.901,0,4.081,0.775,5.547,2.179L229.835,297.754L229.835,297.754z"/>
<polygon fill="#FFFFFF" points="236.132,295.012 231.239,295.012 231.239,295.199 239.623,307.837 239.623,316.861 243.737,316.861 
	243.737,307.837 252.431,295.199 252.431,295.012 247.475,295.012 241.681,304.033 236.132,295.012 "/>
<path fill="#FFFFFF" d="M264.651,298.938h6.17c5.235,0,5.266,7.731,0,7.731h-6.17V298.938L264.651,298.938z M270.821,295.012
	c-3.429-0.031-6.856,0-10.285,0v21.849h4.115v-6.421h6.17C281.511,310.44,281.48,295.012,270.821,295.012L270.821,295.012z"/>
<path fill="#FFFFFF" d="M298.931,316.861h4.49l-9.788-21.849h-4.486l-9.787,21.849h4.456l1.872-4.115h11.405L298.931,316.861
	L298.931,316.861z M295.441,308.911h-8.102l4.05-9.305L295.441,308.911L295.441,308.911z"/>
<path fill="#FFFFFF" d="M324.615,316.582l-6.608-7.449c4.146-0.842,5.516-3.866,5.516-6.875c0-3.785-2.712-7.214-7.854-7.245
	c-3.46,0.031-6.918,0-10.378,0v21.849h4.114v-7.295h3.956l6.359,7.295h4.895V316.582L324.615,316.582z M315.668,298.845
	c2.587,0,3.738,1.749,3.738,3.507c0,1.757-1.121,3.506-3.738,3.506h-6.264v-7.013H315.668L315.668,298.845z"/>
<path fill="#FFFFFF" d="M332.903,316.861h4.113v-18.109h6.919v-3.739c-6.325,0-11.657,0-17.951,0v3.739h6.919V316.861
	L332.903,316.861z"/>
<polygon fill="#FFFFFF" points="360.765,308.56 350.077,295.012 346.742,295.012 346.742,316.861 350.853,316.861 350.853,302.127 
	362.324,316.861 362.324,316.861 364.879,316.861 364.879,295.012 360.765,295.012 360.765,308.56 "/>
<path fill="#FFFFFF" d="M384.919,312.808h-12.25v-4.925h11.813v-3.832h-11.813v-5.049h12.25v-3.99H368.59c0,7.284,0,14.586,0,21.849
	h16.329V312.808L384.919,312.808z"/>
<path fill="#FFFFFF" d="M407.454,316.582l-6.607-7.449c4.146-0.842,5.515-3.866,5.515-6.875c0-3.785-2.711-7.214-7.854-7.245
	c-3.458,0.031-6.917,0-10.377,0v21.849h4.112v-7.295h3.959l6.358,7.295h4.894V316.582L407.454,316.582z M398.507,298.845
	c2.587,0,3.74,1.749,3.74,3.507c0,1.757-1.121,3.506-3.74,3.506h-6.265v-7.013H398.507L398.507,298.845z"/>
<path fill="#FFFFFF" d="M426.836,298.626c-1.652-3.366-5.172-4.331-8.569-4.331c-4.022,0.033-8.447,1.871-8.447,6.359
	c0,4.891,4.115,6.077,8.57,6.604c2.901,0.313,5.049,1.155,5.049,3.21c0,2.369-2.43,3.274-5.017,3.274
	c-2.648,0-5.174-1.06-6.139-3.46l-3.429,1.776c1.62,3.99,5.049,5.36,9.506,5.36c4.862,0,9.162-2.088,9.162-6.951
	c0-5.203-4.238-6.387-8.788-6.948c-2.617-0.312-4.862-0.842-4.862-2.742c0-1.621,1.465-2.897,4.518-2.897
	c2.369,0,4.429,1.183,5.174,2.429L426.836,298.626L426.836,298.626z"/>
<polygon fill="#8C181D" points="149.673,209.802 159.314,225.607 223.507,144.357 237.432,155.361 166.15,245.586 159.186,253.062 
	120.554,201.055 149.673,209.802 "/>
</svg>